<?xml version="1.0" encoding="UTF-8" standalone="no"?>
<!-- Created with Inkscape (http://www.inkscape.org/) -->

<svg
   width="119.59812mm"
   height="130.87164mm"
   viewBox="0 0 119.59812 130.87164"
   version="1.1"
   id="svg5"
   xml:space="preserve"
   inkscape:version="1.2.2 (b0a84865, 2022-12-01)"
   sodipodi:docname="logo.svg"
   inkscape:export-filename="logo.png"
   inkscape:export-xdpi="54.368748"
   inkscape:export-ydpi="54.368748"
   xmlns:inkscape="http://www.inkscape.org/namespaces/inkscape"
   xmlns:sodipodi="http://sodipodi.sourceforge.net/DTD/sodipodi-0.dtd"
   xmlns="http://www.w3.org/2000/svg"
   xmlns:svg="http://www.w3.org/2000/svg"><sodipodi:namedview
     id="namedview7"
     pagecolor="#ffffff"
     bordercolor="#000000"
     borderopacity="0.25"
     inkscape:showpageshadow="2"
     inkscape:pageopacity="0.0"
     inkscape:pagecheckerboard="0"
     inkscape:deskcolor="#d1d1d1"
     inkscape:document-units="mm"
     showgrid="false"
     inkscape:zoom="1.104894"
     inkscape:cx="287.35788"
     inkscape:cy="285.54775"
     inkscape:window-width="1387"
     inkscape:window-height="1027"
     inkscape:window-x="2102"
     inkscape:window-y="25"
     inkscape:window-maximized="0"
     inkscape:current-layer="g1966" /><defs
     id="defs2" /><g
     inkscape:label="Ebene 1"
     inkscape:groupmode="layer"
     id="layer1"
     transform="translate(-49.75566,-68.185534)"><g
       id="g1966"
       style="stroke:#000000;stroke-width:3;stroke-dasharray:none;stroke-opacity:1;stroke-linejoin:bevel;stroke-linecap:round"><path
         style="fill:none;fill-opacity:1;stroke:#000000;stroke-width:3;stroke-linecap:round;stroke-linejoin:bevel;stroke-dasharray:none;stroke-dashoffset:5.00145;stroke-opacity:1"
         d="M 53.676737,101.2577 133.42987,69.085517 163.90878,104.13626 83.139678,138.34036 73.3187,125.81015 c 0,0 7.108264,-4.83066 2.539908,-11.1756 -3.047891,-4.23318 -12.36089,-2.03193 -12.36089,-2.03193 z"
         id="path421"
         sodipodi:nodetypes="cccccscc" /><path
         style="fill:none;fill-opacity:1;stroke:#000000;stroke-width:3;stroke-linecap:round;stroke-linejoin:bevel;stroke-dasharray:none;stroke-dashoffset:5.00145;stroke-opacity:1"
         d="m 82.129233,135.92427 c 0,0 80.233367,-33.13434 79.725387,-34.1503"
         id="path1127"
         sodipodi:nodetypes="cc" /><path
         style="fill:none;fill-opacity:1;stroke:#000000;stroke-width:3;stroke-linecap:round;stroke-linejoin:bevel;stroke-dasharray:none;stroke-dashoffset:5.00145;stroke-opacity:1"
         d="m 53.676737,101.2577 -2.370579,10.15963 32.172177,41.31585 84.324965,-35.72805 -3.91569,-12.84771"
         id="path1129"
         sodipodi:nodetypes="ccccc" /><path
         style="fill:none;fill-opacity:1;stroke:#000000;stroke-width:3;stroke-linecap:round;stroke-linejoin:bevel;stroke-dasharray:none;stroke-dashoffset:5.00145;stroke-opacity:1"
         d="m 51.306158,111.41733 3.052373,12.86495 29.693648,38.07492 -0.573844,-9.62402 v 0"
         id="path1131" /><path
         style="fill:none;fill-opacity:1;stroke:#000000;stroke-width:3;stroke-linecap:round;stroke-linejoin:bevel;stroke-dasharray:none;stroke-dashoffset:5.00145;stroke-opacity:1"
         d="m 84.052179,162.3572 6.465551,-2.63411"
         id="path1133" /><path
         style="fill:none;fill-opacity:1;stroke:#000000;stroke-width:3;stroke-linecap:round;stroke-linejoin:bevel;stroke-dasharray:none;stroke-dashoffset:5.00145;stroke-opacity:1"
         d="m 101.53311,154.81405 7.17498,-3.11304"
         id="path1135" /><path
         style="fill:none;fill-opacity:1;stroke:#000000;stroke-width:3;stroke-linecap:round;stroke-linejoin:bevel;stroke-dasharray:none;stroke-dashoffset:5.00145;stroke-opacity:1"
         d="m 125.12041,144.51706 7.90234,-3.35251"
         id="path1137" /><path
         style="fill:none;fill-opacity:1;stroke:#000000;stroke-width:3;stroke-linecap:round;stroke-linejoin:bevel;stroke-dasharray:none;stroke-dashoffset:5.00145;stroke-opacity:1"
         d="m 148.3485,134.45954 7.71472,-3.38244"
         id="path1139"
         sodipodi:nodetypes="cc" /><path
         style="fill:none;fill-opacity:1;stroke:#000000;stroke-width:3;stroke-linecap:round;stroke-linejoin:bevel;stroke-dasharray:none;stroke-dashoffset:5.00145;stroke-opacity:1"
         d="m 167.8033,117.00513 -2.21333,7.03768"
         id="path1141" /><path
         style="fill:none;fill-opacity:1;stroke:#000000;stroke-width:3;stroke-linecap:round;stroke-linejoin:bevel;stroke-dasharray:none;stroke-dashoffset:5.00145;stroke-opacity:1"
         d="m 51.306158,111.41733 -0.650499,3.13255 1.666462,26.0764 1.947262,3.47121 2.201254,-0.59265 0.846637,-5.24914 -0.341775,-10.61779"
         id="path1143" /><path
         style="fill:none;fill-opacity:1;stroke:#000000;stroke-width:3;stroke-linecap:round;stroke-linejoin:bevel;stroke-dasharray:none;stroke-dashoffset:5.00145;stroke-opacity:1"
         d="m 89.288894,150.27127 1.228836,9.45182 1.436788,2.51438 1.795987,32.14816 2.215051,3.77157 2.095318,-0.77826 0.897993,-3.29265 -0.598662,-20.47424 c 0,0 4.250505,-4.19064 4.250505,-6.76489 0,-2.57424 0.1796,-8.56087 0.1796,-8.56087 l -1.2572,-3.47224 -3.983305,-8.04288"
         id="path1145" /><path
         style="fill:none;fill-opacity:1;stroke:#000000;stroke-width:3;stroke-linecap:round;stroke-linejoin:bevel;stroke-dasharray:none;stroke-dashoffset:5.00145;stroke-opacity:1"
         d="m 107.09948,142.8408 1.60861,8.86021 1.43929,2.1328 1.77793,8.3817 4.74116,2.87856 0.59265,19.38797 1.8626,3.04789 2.36222,-0.67731 0.77034,-2.70924 -0.0847,-20.82725 c 0,0 3.97919,-4.6565 3.89453,-6.5191 -0.0847,-1.8626 -0.94373,-12.27997 -0.94373,-12.27997 l -3.63647,-6.93867"
         id="path1147" /><path
         style="fill:none;fill-opacity:1;stroke:#000000;stroke-width:3;stroke-linecap:round;stroke-linejoin:bevel;stroke-dasharray:none;stroke-dashoffset:5.00145;stroke-opacity:1"
         d="m 129.37934,133.28516 c 0,0 3.15162,4.26914 3.64341,7.87939 0.49179,3.61025 1.8464,11.14531 1.8464,11.14531 l 2.45525,2.11659 2.11659,0.42332 0.76197,19.47263 1.69328,3.47121 2.62457,-0.16932 0.84663,-4.40251 -0.25399,-19.30331 c 0,0 3.80987,-3.80986 3.97919,-6.68842 0.16933,-2.87857 0,-8.23921 0,-8.23921 l -0.74414,-4.5313 -3.95311,-7.5366"
         id="path1149" /><path
         style="fill:none;fill-opacity:1;stroke:#000000;stroke-width:3;stroke-linecap:round;stroke-linejoin:bevel;stroke-dasharray:none;stroke-dashoffset:5.00145;stroke-opacity:1"
         d="m 151.88061,123.60889 3.32905,4.86249 0.85356,2.60572 1.80282,3.51138 1.08442,7.40269 4.18326,3.53559 0.26708,19.65197 2.11659,3.30188 2.28591,-0.50798 0.65048,-3.38654 -0.90447,-33.77036 -1.95934,-6.77292"
         id="path1151"
         sodipodi:nodetypes="cccccccccccc" /><path
         style="fill:none;fill-opacity:1;stroke:#000000;stroke-width:3;stroke-linecap:round;stroke-linejoin:bevel;stroke-dasharray:none;stroke-dashoffset:5.00145;stroke-opacity:1"
         d="m 63.497718,112.60262 0.08467,6.16183 8.805015,10.26292 0.931302,-3.21722"
         id="path1220"
         sodipodi:nodetypes="cccc" /><path
         style="fill:none;fill-opacity:1;stroke:#000000;stroke-width:3;stroke-linecap:round;stroke-linejoin:bevel;stroke-dasharray:none;stroke-dashoffset:5.00145;stroke-opacity:1"
         d="m 83.139676,138.34036 0.338659,14.39282"
         id="path1948" /></g><g
       id="g2776"
       transform="translate(57.126108,146.96697)"
       style="stroke-width:3;stroke-dasharray:none;stroke-linejoin:bevel;stroke-linecap:round" /></g></svg>
